<svg xmlns="http://www.w3.org/2000/svg" xml:space="preserve" style="enable-background:new 0 0 100 100" viewBox="0 0 100 100"><path d="M46.5 6.5c1.1 0 2 .9 2 2v10.7c0 1.1-.9 2-2 2s-2-.9-2-2V8.5c0-1.1.9-2 2-2zM24.6 29 17 21.5c-.8-.8-.8-2 0-2.8.8-.8 2-.8 2.8 0l7.6 7.5c.8.8.8 2 0 2.8-.8.8-2 .8-2.8 0zM6.8 48.1h10.7c1.1 0 2 .9 2 2s-.9 2-2 2H6.8c-1.1 0-2-.9-2-2 .1-1.1 1-2 2-2zm88.3 3.7c-.2-13.3-11-24-24.3-24-3.7 0-7.3.9-10.4 2.4-4.1-2.8-8.9-4.4-13.9-4.4-13.3 0-24.1 10.8-24.3 24V50.1c.2 13.3 11 24 24.3 24 3.7 0 7.3-.9 10.4-2.4 4.1 2.9 8.9 4.4 13.9 4.4 13.3 0 24.1-10.7 24.3-24V51.8zM26.2 50c.1-11.1 9.2-20.2 20.3-20.2 3.7 0 7.1 1 10.1 2.7-6 4.4-10 11.4-10 19.4V52.2c.1 6.3 2.6 12.3 7 16.8-2.3.8-4.6 1.3-7.1 1.3-11.2-.1-20.3-9.2-20.3-20.3zm20.3 28.9c1.1 0 2 .9 2 2v10.7c0 1.1-.9 2-2 2s-2-.9-2-2V80.9c0-1.1.9-2 2-2zM27.4 71c.8.8.8 2 0 2.8l-7.6 7.5c-.8.8-2 .8-2.8 0-.8-.8-.8-2 0-2.8l7.6-7.5c.8-.8 2-.8 2.8 0z" fill="#0d296b"/></svg>
